# xmcd CD database file
#
# Track frame offsets:
#	150
#	20801
#	38943
#	57532
#	75539
#	90933
#	112463
#	135056
#	152927
#	173535
#	194856
#	215742
#	234134
#	247399
#	261689
#
# Disc length: 3744 seconds
#
# Revision: 0
# Processed by: cddbd v1.5.2PL0 Copyright (c) Steve Scherf et al.
# Submitted via: CDex 1.51
#
DISCID=de0e9e0f
DTITLE=Greyhound George and Karl Valta - Titel Apple Street Boogie
DYEAR=2015
DGENRE=Blues
TTITLE0=Future Blues
TTITLE1=Blues Won`t Leave
TTITLE2=Walk By Your Side
TTITLE3=Back Door Man - Evil
TTITLE4=Hole In My Pocket
TTITLE5=The Road
TTITLE6=Blind Willie McTell
TTITLE7=Confused
TTITLE8=You Gotta Move
TTITLE9=Gone For Good
TTITLE10=Dunkeltuten
TTITLE11=What Can I Do When I Get Happy
TTITLE12=Run Buddy Run
TTITLE13=Apple Street Boogie
TTITLE14=Live Some Life
EXTD=YEAR: 2015
EXTT0=
EXTT1=
EXTT2=
EXTT3=
EXTT4=
EXTT5=
EXTT6=
EXTT7=
EXTT8=
EXTT9=
EXTT10=
EXTT11=
EXTT12=
EXTT13=
EXTT14=
PLAYORDER=
